<svg width="124" height="80" viewBox="0 0 124 80" xmlns="http://www.w3.org/2000/svg"><title>Group 2</title><g fill="none" fill-rule="evenodd"><path d="M122.532 74.674l-1.143-1.452c-1.317-1.665-2.672-3.408-4.338-4.88a128.347 128.347 0 0 0-5.615-4.686l.116-.232.349-.136a2.77 2.77 0 0 0 1.587-2.517c-.019-.6-.019-1.181-.019-1.724-.02-1.626-.039-3.04-.155-4.473-.077-.93.426-3.311.93-5.615.62-2.886 1.336-6.294 1.704-9.857.038-.174.058-.33.077-.523.078-.697.155-1.626.194-2.943.032-.937.006-1.875-.078-2.808a26.026 26.026 0 0 0-.677-4.667c-1.162-4.802-7.688-16.227-16.886-15.995-2.943.078-11.29-1.956-18.338-8.714A11.928 11.928 0 0 0 71.487.005c-2.157.08-4.274.608-6.216 1.55-2.73 1.278-5.364 2.71-7.842 4.085a18.532 18.532 0 0 1-8.714 2.402 21.63 21.63 0 0 1-3.176-.155c-3.66-.446-7.978-.91-12.142-.717-7.377.368-13.613 5.635-15.53 13.11a18.241 18.241 0 0 0-.387 1.936 2.517 2.517 0 0 0-1.472.446c-.329.232-1.007.716-1.413 1.065-4.841 4.086-8.54 9.295-11.019 15.472C.497 46.887-.548 55.562.266 66.522c.425 5.867 2.497 8.791 6.157 8.695 1.8-.04 3.834-.891 6.584-2.73a292.787 292.787 0 0 0 6.913-4.823l.135.213c.91 1.337 2.673 3.622 3.757 4.764 2.479 2.576 5.442 3.912 8.598 3.834a12.219 12.219 0 0 0 4.396-.987c2.285-.95 4.434-2.15 6.506-3.292l1.22-.678a395.121 395.121 0 0 0 6.39-3.602c4.105-2.343 8.346-4.763 12.626-6.816 4.28-2.053 8.946-3.273 13.4-3.389 4.434-.116 8.908.794 13.303 2.711 9.644 4.202 16.905 8.908 22.83 14.872.833.852 2.344 2.014 3.37 2.77 1.801 1.316 2.885 1.955 3.931 1.936.25-.009.499-.054.736-.136a3.06 3.06 0 0 0 1.956-2.091c.232-.891.232-2.15-.542-3.099z" fill="#BD202E"/><path d="M71.748 2.187c-1.84.08-3.644.538-5.298 1.348-2.64 1.235-5.185 2.62-7.73 4.043a21.06 21.06 0 0 1-9.847 2.715 23.998 23.998 0 0 1-3.538-.188c-3.594-.449-7.263-.842-10.876-.748l-.936.037c-6.495.318-11.812 5.13-13.422 11.4-.973 3.781-.449 7.432.824 10.988 2.078 5.86 3.594 11.85 4.08 18.064.15 1.89.357 3.782.562 5.766.075.655.225 1.647.899 1.46.674-.187 18.963-12.935 39.76-12.673 20.516.262 30.138 4.848 44.72 16.847.206.169.599-.075.599-.337-.038-2.377-.019-4.249-.169-6.083-.318-3.838 4.605-16.361 2.21-26.17-.88-3.631-6.609-14.47-14.602-14.264-7.993.206-17.165-6.514-20.18-9.416-2.077-1.984-4.51-2.845-7.056-2.789z" fill="#FF2D55"/><path d="M69.483 48.892c-.861.025-1.729.075-2.602.15a91.874 91.874 0 0 0-35.585 10.594c-2.04 1.086-5.672 3.276-7.919 4.736-.58.375-1.235.861-1.497 1.292a.955.955 0 0 0 .037 1.048c.843 1.255 2.546 3.445 3.52 4.474 2.002 2.097 4.324 3.182 6.87 3.108a9.884 9.884 0 0 0 3.575-.805c2.602-1.086 5.073-2.527 7.544-3.875 6.402-3.5 12.654-7.376 19.224-10.52 4.736-2.284 9.566-3.52 14.451-3.632 4.886-.112 9.585.824 14.377 2.92 8.76 3.8 16.866 8.611 23.68 15.444 1.235 1.235 5.147 4.174 5.634 4.006.487-.169.6-1.142.337-1.442-1.685-2.078-3.257-4.324-5.241-6.084-6.683-5.877-13.853-11.156-21.846-15.162s-15.892-6.44-24.578-6.234l.019-.018zM16.526 27.327v.038h-.019l.02-.038zm.711-2.752c-.355.244-.936.674-1.235.918-4.699 3.95-8.105 8.891-10.39 14.6-3.387 8.5-3.837 17.353-3.163 26.395.337 4.623 1.554 6.589 3.763 6.533 1.385-.038 3.163-.861 5.354-2.34 4.155-2.79 8.18-5.728 12.223-8.667.412-.3.786-1.067.73-1.573-.374-3.032-.355-9.528-1.497-15.967-.936-5.316-3.033-10.745-3.688-12.973-.655-2.227-1.123-4.567-1.61-6.607-.037-.169-.28-.487-.45-.356l-.037.037z" fill="#FF2D55"/><path d="M66.937 46.159c-2.808.074-5.653.3-8.499.655-11.53 1.441-21.789 6.009-31.485 12.149-.356.224-.487 1.048.655.43 2.77-1.479 8.835-4.455 17.895-7.506 7.207-2.584 14.583-4.23 22.127-4.437a55.765 55.765 0 0 1 8.685.45c11.494 1.516 21.471 6.57 30.775 13.16l1.46 1.066c.823.6 2.096 1.03.187-.786-1.91-1.816-12.018-8.33-19.056-11.25C82.268 47 74.668 45.97 66.918 46.159h.019z" fill="#FF2D55"/><path d="M39.944 30.378l-1.498.468-1.142-3.556h-.037a95.386 95.386 0 0 0-.524 4.043l-.955.337a83.962 83.962 0 0 0-2.92-2.845h-.037l1.31 3.5-1.46.562-2.19-5.56 2.059-.786a91.625 91.625 0 0 1 3.032 2.995h.038c.187-1.685.28-2.527.524-4.23l2.078-.656 1.722 5.728zM44.642 27.758l-2.227.561-.094 1.385-1.74.487c.205-2.134.449-4.268.73-6.402l2.227-.561c1.254 1.74 2.47 3.5 3.669 5.297l-1.835.412-.73-1.18zm-2.171-.58l1.572-.394-1.329-2.04h-.037c-.094.973-.131 1.46-.206 2.433zM47.843 28.394l-1.198-5.859 1.835-.356.468 2.584h.037a52.12 52.12 0 0 1 2.003-2.996l1.984-.299a97.704 97.704 0 0 0-2.115 2.995 75.076 75.076 0 0 1 3.051 2.902l-2.04.299c-.842-.805-1.273-1.217-2.153-2.003l-.486.749.3 1.666-1.686.318zM59.168 26.803c-1.89.15-2.826.243-4.698.487l-.768-5.916a74.603 74.603 0 0 1 5.017-.505l.094 1.217a83.27 83.27 0 0 0-3.108.28l.131 1.18 2.883-.262.094 1.123-2.864.243.13 1.217a80.93 80.93 0 0 1 2.996-.28l.093 1.216zM66.207 25.23h-2.265l-.412 1.33-1.778.074a210.03 210.03 0 0 1 2.171-6.046h2.284a165.683 165.683 0 0 1 2.302 6.009l-1.853-.037-.45-1.33zm-1.966-1.066h1.61c-.318-.918-.468-1.386-.805-2.303h-.037c-.3.917-.45 1.367-.749 2.303h-.019zM76.69 27.177l-1.535-.168.374-3.707h-.037a74.277 74.277 0 0 0-2.06 3.501l-.992-.075c-.58-1.516-.88-2.265-1.497-3.762h-.056L70.7 26.69l-1.535-.075.205-5.972 2.153.094c.655 1.572.955 2.359 1.554 3.95h.037a103.626 103.626 0 0 1 2.134-3.67l2.134.225-.692 5.934zM82.399 28.02a77.82 77.82 0 0 0-4.661-.73l.767-5.916c2.003.262 2.995.412 4.98.768l-.225 1.198c-1.235-.225-1.853-.318-3.089-.506l-.168 1.18 2.864.468-.206 1.104-2.827-.468-.187 1.198c1.198.169 1.779.281 2.977.487l-.225 1.217zM85.095 28.563l-1.723-.356 1.142-5.86c1.236.244 1.853.375 3.089.656 1.797.412 2.564 1.385 2.246 2.583a1.797 1.797 0 0 1-1.59 1.348c.336 1.03.486 1.554.785 2.583l-1.909-.486c-.262-.918-.412-1.386-.693-2.303l-.917-.206-.43 2.04zm.655-3.052l1.048.225c.655.15 1.104-.075 1.235-.58.132-.506-.224-.936-.86-1.067l-1.068-.225-.355 1.647zM89.7 29.667l1.553-5.766 1.816.506-1.666 5.728zM93.088 27.533c.543-1.91 2.583-2.49 4.324-1.853 1.74.636 2.77 2.021 2.321 3.37l-1.666-.618c.15-.693-.262-1.33-1.048-1.61-.786-.281-1.797.15-2.153 1.254-.356 1.104 0 1.965.936 2.284.936.318 1.423.037 1.778-.58l1.629.598c-.58 1.292-2.115 1.704-3.8 1.123-1.685-.58-2.864-2.115-2.321-3.968zM103.196 33.055l-2.134-.917-.917 1.048-1.685-.655a208.516 208.516 0 0 1 4.455-4.661l2.134.917a185.069 185.069 0 0 1-.262 6.44l-1.722-.787c.075-.561.094-.842.131-1.385zm-1.385-1.778l1.497.636c.075-.973.113-1.46.169-2.433h-.019l-1.647 1.797zM43.65 40c-1.834.524-3.276-.168-3.893-2.04-.618-1.872.206-3.332 2.134-3.894 1.553-.45 2.939.094 3.388 1.235l-1.573.412c-.3-.468-.86-.655-1.478-.468-.899.262-1.236 1.067-.899 2.19.337 1.124 1.123 1.629 2.003 1.386.88-.244 1.067-.73.955-1.31v-.094l-1.123.318-.281-1.01 2.658-.712.187.711c.393 1.573-.374 2.79-2.078 3.276zM48.61 38.633l-1.534.356-1.404-5.803a73.503 73.503 0 0 1 2.77-.618c1.61-.336 2.621.244 2.827 1.46a1.797 1.797 0 0 1-.768 1.854c.674.823.993 1.217 1.648 2.059l-1.722.318-1.46-1.834-.805.168.449 2.04zm-.673-3.05l.936-.207c.58-.13.861-.505.767-1.01-.093-.506-.542-.768-1.123-.637l-.954.206.374 1.647zM56.922 37.23a61.61 61.61 0 0 0-4.155.58l-.993-5.897c1.779-.3 2.677-.43 4.474-.636l.131 1.217-2.77.393.168 1.179 2.565-.337.13 1.104-2.545.337.169 1.198 2.658-.355.168 1.217zM61.34 35.545l-2.022.15-.28 1.347-1.573.15c.487-2.059 1.01-4.1 1.554-6.14l2.04-.15a203.08 203.08 0 0 1 2.396 5.878l-1.647.075-.468-1.31zm-1.816-.974l1.442-.093a110.37 110.37 0 0 0-.862-2.246h-.037c-.225.935-.318 1.403-.524 2.34h-.019zM64.653 36.724l-.075-4.755-1.797.057-.056-1.217a71.42 71.42 0 0 1 5.298-.038v1.217h-1.816v4.755l-1.554-.019zM74.05 35.788l-2.021-.168-.487 1.273-1.573-.094a201.404 201.404 0 0 1 2.49-5.822l2.04.169c.525 2.059 1.011 4.1 1.46 6.177l-1.647-.187-.262-1.348zm-1.628-1.235l1.422.13c-.187-.935-.3-1.422-.505-2.358h-.019c-.374.88-.543 1.33-.898 2.228zM78.973 37.866c-1.853-.3-2.845-1.554-2.602-3.5.244-1.947 1.592-2.92 3.557-2.602 1.572.262 2.583 1.329 2.508 2.564l-1.59-.3c-.057-.542-.487-.954-1.124-1.048-.917-.15-1.572.45-1.74 1.591-.17 1.142.299 1.966 1.197 2.116.899.15 1.273-.187 1.423-.787v-.093l-1.142-.187.169-1.03 2.676.487-.15.711c-.243 1.591-1.46 2.359-3.182 2.078zM86.105 37.903l-1.984-.468-.674 1.198-1.553-.318a198.504 198.504 0 0 1 3.332-5.39l2.003.486c.205 2.115.393 4.212.542 6.327l-1.61-.43c-.018-.6-.018-.862-.056-1.405zm-1.441-1.478l1.404.337c-.056-.955-.075-1.442-.15-2.396h-.037l-1.217 2.059zM88.333 39.85l1.647-5.747 1.61.487-1.76 5.71zM90.73 40.58l1.834-5.69 1.272.43a92.558 92.558 0 0 1 1.442 4.193h.037l1.217-3.257 1.498.58-2.21 5.56-1.16-.45c-.487-1.684-.767-2.526-1.348-4.211h-.037l-1.142 3.313-1.404-.468z" fill="#FFF"/></g></svg>