<?xml version="1.0" encoding="UTF-8"?>
<svg width="124px" height="80px" viewBox="0 0 124 80" version="1.1" xmlns="http://www.w3.org/2000/svg" xmlns:xlink="http://www.w3.org/1999/xlink">
    <!-- Generator: Sketch 40.2 (33826) - http://www.bohemiancoding.com/sketch -->
    <title>Group 2</title>
    <desc>Created with Sketch.</desc>
    <defs></defs>
    <g id="Page-2" stroke="none" stroke-width="1" fill="none" fill-rule="evenodd">
        <g id="Desktop-2" transform="translate(-621.000000, -110.000000)">
            <g id="Group-2" transform="translate(621.000000, 110.000000)">
                <path d="M122.531592,74.6743759 L121.389095,73.2220494 C120.072319,71.5567151 118.716814,69.8139233 117.05148,68.3422325 C115.386146,66.8705417 113.294796,65.1083856 111.435818,63.6560591 L111.552004,63.4236869 L111.900562,63.2881364 C112.874154,62.8289688 113.493426,61.8471954 113.488439,60.7707706 C113.469075,60.1704756 113.469075,59.589545 113.469075,59.0473432 C113.44971,57.4207375 113.430346,56.0071398 113.31416,54.5741777 C113.236703,53.6446887 113.740176,51.2628733 114.243649,48.9585153 C114.863308,46.0732268 115.579789,42.6651007 115.947712,39.1020598 C115.986441,38.9277806 116.005805,38.7728658 116.025169,38.5792222 C116.102627,37.8821055 116.180084,36.9526166 116.218813,35.6358406 C116.250698,34.6991944 116.224829,33.7614734 116.141355,32.8280095 C116.057129,31.2551018 115.83028,29.6930882 115.463603,28.1612004 C114.301742,23.3588409 107.775955,11.9338728 98.5778874,12.166245 C95.6345058,12.2437024 87.2884698,10.2104454 80.2398453,3.45228623 C77.9176323,1.15285817 74.7537052,-0.093113114 71.4871579,0.00543143192 L71.4871579,0.00543143192 C69.3301879,0.0853466963 67.2133994,0.612895244 65.2712006,1.55457966 C62.5408269,2.83262694 59.9072749,4.26558905 57.4286377,5.6404581 C54.7666923,7.14780562 51.7729959,7.97273531 48.714679,8.04163785 C47.6537274,8.06797894 46.5922758,8.01620081 45.5389251,7.88672303 C41.8790624,7.44134291 37.5608117,6.97659844 33.3974759,7.17024197 C26.0196575,7.53816468 19.7843358,12.8052686 17.8672649,20.2799088 C17.7032987,20.9179207 17.5740136,21.5643462 17.4799779,22.2163441 C16.9549703,22.2076863 16.440396,22.3634128 16.008287,22.6617242 L16.008287,22.6617242 C15.6790931,22.8940965 15.0013407,23.3782053 14.5946893,23.7267636 C9.75360109,27.8126421 6.0550097,33.021653 3.57637254,39.1988815 C0.497440445,46.8865296 -0.548234606,55.5617597 0.265068212,66.5219833 C0.691083974,72.3893823 2.76306972,75.3133995 6.42293241,75.2165778 C8.22381722,75.1778491 10.2570743,74.3258175 13.0068124,72.486204 C15.3305347,70.9176914 17.654257,69.2910858 19.9198863,67.6644802 L20.0554368,67.877488 C20.9655614,69.2136284 22.7277175,71.498622 23.8121212,72.6411188 C26.2907584,75.2165778 29.2535044,76.5527181 32.4098939,76.4752607 C33.9236777,76.421374 35.4142459,76.0864886 36.805602,75.4876787 C39.0905956,74.5388254 41.2400388,73.3382355 43.3120245,72.1957387 L44.5319787,71.5179864 C46.6814219,70.3367609 48.8308651,69.1168066 50.9222152,67.9162168 C55.027458,65.5731301 59.2682512,63.152586 63.5477732,61.0999646 C67.8272952,59.0473432 72.4941042,57.8273889 76.9479054,57.7112028 L76.9479054,57.7112028 C81.3823421,57.5950167 85.8555076,58.5051413 90.2512157,60.4222122 C99.8946634,64.6242768 107.156296,69.3298145 113.081788,75.2940352 C113.914455,76.1460667 115.424874,77.3079279 116.451185,78.0631376 C118.25207,79.3799136 119.336474,80.0189373 120.382149,79.9995729 C120.632813,79.9912973 120.880834,79.9456092 121.117994,79.8640224 C122.076035,79.5338096 122.808424,78.7506611 123.073794,77.7726723 C123.306166,76.8819121 123.306166,75.6232292 122.531592,74.6743759 L122.531592,74.6743759 Z" id="Shape" fill="#BD202E"></path>
                <g id="Group-6" transform="translate(2.000000, 2.000000)">
                    <path d="M69.7477833,0.187192118 C67.9078641,0.266160477 66.1041961,0.725044194 64.4502463,1.53497537 C61.8108374,2.77044335 59.2650246,4.15566502 56.7192118,5.57832512 C53.7095609,7.27733994 50.3280107,8.20951633 46.8729064,8.29261084 C45.6905947,8.31746964 44.5080626,8.25490181 43.3349754,8.10541872 C39.7408867,7.65615764 36.0719212,7.26305419 32.4591133,7.35665025 L31.5231527,7.39408867 C25.0275862,7.71231527 19.71133,12.5231527 18.1014778,18.7940887 C17.1280788,22.5753695 17.6522167,26.2256158 18.9251232,29.782266 C21.0029557,35.6413793 22.5192118,41.6315271 23.0059113,47.8463054 C23.155665,49.7369458 23.3615764,51.6275862 23.5674877,53.6118227 C23.6423645,54.2669951 23.7921182,55.2591133 24.4660099,55.0719212 C25.1399015,54.8847291 43.4285714,42.1369458 64.2256158,42.3990148 C84.7418719,42.6610837 94.3635468,47.2472906 108.945813,59.2463054 C109.151724,59.4147783 109.544828,59.1714286 109.544828,58.9093596 C109.507389,56.5320197 109.526108,54.6600985 109.376355,52.8256158 C109.058128,48.9881773 113.981281,36.4650246 111.585222,26.6561576 C110.705419,23.0246305 104.97734,12.1862069 96.9842365,12.3921182 C88.991133,12.5980296 79.8187192,5.87783251 76.8049261,2.97635468 C74.7270936,0.992118227 72.2935961,0.131034483 69.7477833,0.187192118 L69.7477833,0.187192118 Z" id="Shape" fill="#FF2D55"></path>
                    <path d="M67.4827586,46.8916256 C66.6216749,46.9165846 65.7543514,46.9665025 64.8807882,47.0413793 C52.4215954,48.114443 40.3126221,51.7197449 29.2955665,57.6364532 C27.2551724,58.7221675 23.6236453,60.9123153 21.3773399,62.3724138 C20.7970443,62.746798 20.1418719,63.2334975 19.879803,63.6640394 C19.682006,63.9896352 19.6967211,64.4016594 19.9172414,64.7123153 C20.7596059,65.9665025 22.4630542,68.1566502 23.4364532,69.1862069 C25.4394089,71.2827586 27.7605911,72.3684729 30.3064039,72.2935961 C31.5379516,72.2505212 32.7505836,71.9775203 33.8817734,71.48867 C36.4837438,70.4029557 38.9546798,68.9615764 41.4256158,67.6137931 C47.8275862,64.1133005 54.079803,60.2384236 60.6502463,57.0935961 C65.3862069,54.8098522 70.2157635,53.5743842 75.1014778,53.462069 C79.9871921,53.3497537 84.6857143,54.2857143 89.4778325,56.382266 C98.2384236,60.182266 106.343842,64.9931034 113.157635,71.8256158 C114.393103,73.0610837 118.305419,76 118.792118,75.8315271 C119.278818,75.6630542 119.391133,74.6896552 119.129064,74.3901478 C117.444335,72.3123153 115.871921,70.0660099 113.887685,68.3064039 C107.204926,62.4285714 100.035468,57.1497537 92.0423645,53.1438424 C84.0492611,49.137931 76.1497537,46.7044335 67.4640394,46.9103448 L67.4827586,46.8916256 Z" id="Shape" fill="#FF2D55"></path>
                    <path d="M14.5261084,25.3270936 L14.5261084,25.364532 L14.5073892,25.364532 L14.5261084,25.3270936 Z M15.2374384,22.5753695 C14.8817734,22.8187192 14.3014778,23.2492611 14.0019704,23.4926108 C9.30344828,27.4423645 5.89655172,32.3842365 3.61280788,38.0935961 C0.224630542,46.5921182 -0.224630542,55.4463054 0.449261084,64.4876847 C0.786206897,69.11133 2.00295567,71.0768473 4.21182266,71.0206897 C5.59704433,70.9832512 7.37536946,70.1596059 9.56551724,68.6807882 C13.7211823,65.8916256 17.7458128,62.9527094 21.7891626,60.0137931 C22.2009852,59.7142857 22.5753695,58.946798 22.5192118,58.4413793 C22.1448276,55.408867 22.1635468,48.9133005 21.0216749,42.4738916 C20.0857143,37.1576355 17.9891626,31.729064 17.3339901,29.5014778 C16.6788177,27.2738916 16.2108374,24.9339901 15.7241379,22.8935961 C15.6866995,22.7251232 15.4433498,22.4068966 15.2748768,22.537931 L15.2374384,22.5753695 Z" id="Shape" fill="#FF2D55"></path>
                    <path d="M64.9369458,44.1586207 C62.129064,44.2334975 59.2837438,44.4581281 56.4384236,44.8137931 C44.9073892,46.2551724 34.6492611,50.8226601 24.9527094,56.9625616 C24.5970443,57.1871921 24.4660099,58.0108374 25.6078818,57.3931034 C28.3783251,55.9142857 34.4433498,52.937931 43.5034483,49.8866995 C50.7103448,47.3034483 58.0857143,45.6561576 65.6295567,45.4502463 C68.5320756,45.3736492 71.436144,45.5238596 74.3152709,45.8995074 C85.808867,47.4157635 95.7862069,52.4699507 105.089655,59.0591133 L106.549754,60.1261084 C107.373399,60.7251232 108.646305,61.155665 106.736946,59.3399015 C104.827586,57.5241379 94.7192118,51.0098522 87.6807882,48.0896552 C80.2679803,45.0009852 72.6679803,43.9714286 64.9182266,44.1586207 L64.9369458,44.1586207 Z" id="Shape" fill="#FF2D55"></path>
                    <path d="M37.9438424,28.3783251 L36.4463054,28.8463054 L35.3044335,25.2896552 L35.2669951,25.2896552 C35.0236453,26.8995074 34.9300493,27.7044335 34.7428571,29.3330049 L33.7881773,29.6699507 C32.6463054,28.5093596 32.0660099,27.9477833 30.8679803,26.8246305 L30.8305419,26.8246305 L32.1408867,30.3251232 L30.6807882,30.8866995 L28.4906404,25.3270936 L30.5497537,24.5408867 C31.7852217,25.720197 32.4029557,26.3192118 33.582266,27.5359606 L33.6197044,27.5359606 C33.8068966,25.8512315 33.9004926,25.008867 34.1438424,23.3054187 L36.2216749,22.6502463 L37.9438424,28.3783251 Z" id="Shape" fill="#FFFFFF"></path>
                    <path d="M42.6423645,25.7576355 L40.4147783,26.3192118 C40.3773399,26.8807882 40.3586207,27.1428571 40.3211823,27.7044335 L38.5802956,28.191133 C38.7862069,26.0571429 39.0295567,23.9231527 39.3103448,21.7891626 L41.537931,21.2275862 C42.7921182,22.9684729 44.008867,24.7280788 45.2068966,26.5251232 L43.3724138,26.9369458 L42.6423645,25.7576355 Z M40.470936,25.1773399 L42.0433498,24.7842365 L40.7142857,22.7438424 L40.6768473,22.7438424 C40.5832512,23.7172414 40.5458128,24.2039409 40.470936,25.1773399 L40.470936,25.1773399 Z" id="Shape" fill="#FFFFFF"></path>
                    <path d="M45.8433498,26.3940887 L44.6453202,20.5349754 L46.479803,20.1793103 L46.9477833,22.7625616 L46.9852217,22.7625616 C47.7527094,21.5458128 48.1458128,20.946798 48.9881773,19.7674877 L50.9724138,19.4679803 C50.0926108,20.6660099 49.6807882,21.2650246 48.8571429,22.4630542 C50.11133,23.6049261 50.729064,24.1852217 51.9083744,25.364532 L49.8679803,25.6640394 C49.0256158,24.8591133 48.5950739,24.4472906 47.7152709,23.6610837 L47.2285714,24.4098522 L47.5280788,26.0758621 L45.8433498,26.3940887 Z" id="Shape" fill="#FFFFFF"></path>
                    <path d="M57.1684729,24.8029557 C55.2778325,24.9527094 54.3418719,25.0463054 52.4699507,25.2896552 L51.7024631,19.3743842 C53.7054187,19.1123153 54.6975369,19.0187192 56.7192118,18.8689655 L56.8128079,20.0857143 C55.5586207,20.1793103 54.9408867,20.235468 53.7054187,20.3665025 L53.8364532,21.5458128 L56.7192118,21.2837438 L56.8128079,22.4068966 L53.9487685,22.6502463 L54.079803,23.8669951 C55.2778325,23.7359606 55.8768473,23.679803 57.0748768,23.5862069 L57.1684729,24.8029557 Z" id="Shape" fill="#FFFFFF"></path>
                    <path d="M64.2068966,23.2305419 L61.9418719,23.2305419 L61.5300493,24.5596059 L59.7517241,24.6344828 C60.444335,22.5940887 61.1743842,20.591133 61.9231527,18.5881773 L64.2068966,18.5881773 C65.0118227,20.5724138 65.7793103,22.5753695 66.5093596,24.5970443 L64.6561576,24.5596059 L64.2068966,23.2305419 Z M62.2413793,22.1635468 L63.8512315,22.1635468 C63.5330049,21.2463054 63.3832512,20.7783251 63.0463054,19.8610837 L63.008867,19.8610837 C62.7093596,20.7783251 62.5596059,21.2275862 62.2600985,22.1635468 L62.2413793,22.1635468 Z" id="Shape" fill="#FFFFFF"></path>
                    <path d="M74.6896552,25.1773399 L73.1546798,25.008867 L73.529064,21.3024631 L73.4916256,21.3024631 C72.6305419,22.6876847 72.2187192,23.3990148 71.4325123,24.8029557 L70.4403941,24.7280788 C69.8600985,23.2118227 69.5605911,22.4630542 68.9428571,20.9655172 L68.8866995,20.9655172 L68.6995074,24.6906404 L67.164532,24.6157635 L67.3704433,18.644335 L69.5231527,18.737931 C70.1783251,20.3103448 70.4778325,21.0965517 71.0768473,22.6876847 L71.1142857,22.6876847 C71.937931,21.208867 72.3684729,20.4788177 73.2482759,19.0187192 L75.382266,19.2433498 L74.6896552,25.1773399 Z" id="Shape" fill="#FFFFFF"></path>
                    <path d="M80.3990148,26.0197044 C78.5458128,25.6827586 77.6098522,25.5330049 75.737931,25.2896552 L76.5054187,19.3743842 C78.5083744,19.6364532 79.5004926,19.7862069 81.4847291,20.1418719 L81.2600985,21.3399015 C80.0246305,21.1152709 79.4068966,21.0216749 78.1714286,20.8344828 L78.0029557,22.0137931 L80.8669951,22.4817734 L80.6610837,23.5862069 L77.8344828,23.1182266 L77.6472906,24.3162562 C78.8453202,24.4847291 79.4256158,24.5970443 80.6236453,24.8029557 L80.3990148,26.0197044 Z" id="Shape" fill="#FFFFFF"></path>
                    <path d="M83.0945813,26.5625616 L81.3724138,26.2068966 L82.5142857,20.3477833 C83.7497537,20.591133 84.3674877,20.7221675 85.6029557,21.0029557 C87.4,21.4147783 88.1674877,22.3881773 87.8492611,23.5862069 C87.6604149,24.328714 87.0215838,24.8698415 86.2581281,24.9339901 C86.5950739,25.9635468 86.7448276,26.4876847 87.044335,27.5172414 L85.1349754,27.0305419 C84.8729064,26.1133005 84.7231527,25.6453202 84.4423645,24.7280788 L83.5251232,24.5221675 L83.0945813,26.5625616 Z M83.7497537,23.51133 L84.7980296,23.7359606 C85.453202,23.8857143 85.9024631,23.6610837 86.0334975,23.155665 C86.164532,22.6502463 85.808867,22.2197044 85.1724138,22.08867 L84.1054187,21.8640394 L83.7497537,23.51133 Z" id="Shape" fill="#FFFFFF"></path>
                    <polygon id="Shape" fill="#FFFFFF" points="87.6995074 27.6669951 89.253202 21.9014778 91.0689655 22.4068966 89.4029557 28.1349754"></polygon>
                    <path d="M91.0876847,25.5330049 C91.6305419,23.6236453 93.670936,23.0433498 95.4118227,23.679803 C97.1527094,24.3162562 98.182266,25.7014778 97.7330049,27.0492611 L96.0669951,26.4315271 C96.2167488,25.7389163 95.8049261,25.1024631 95.0187192,24.8216749 C94.2325123,24.5408867 93.2216749,24.9714286 92.8660099,26.0758621 C92.5103448,27.1802956 92.8660099,28.0413793 93.8019704,28.3596059 C94.737931,28.6778325 95.2246305,28.3970443 95.5802956,27.7793103 L97.208867,28.3783251 C96.6285714,29.6699507 95.0935961,30.0817734 93.408867,29.5014778 C91.7241379,28.9211823 90.5448276,27.3862069 91.0876847,25.5330049 L91.0876847,25.5330049 Z" id="Shape" fill="#FFFFFF"></path>
                    <path d="M101.196059,31.0551724 L99.062069,30.137931 L98.1448276,31.1862069 L96.4600985,30.5310345 C97.920197,28.9586207 99.3990148,27.4049261 100.915271,25.8699507 L103.049261,26.7871921 C102.993103,28.9399015 102.918227,31.0738916 102.787192,33.226601 L101.065025,32.4403941 C101.139901,31.8788177 101.158621,31.5980296 101.196059,31.0551724 L101.196059,31.0551724 Z M99.8108374,29.2768473 L101.308374,29.9133005 C101.383251,28.9399015 101.42069,28.453202 101.476847,27.479803 L101.458128,27.479803 L99.8108374,29.2768473 Z" id="Shape" fill="#FFFFFF"></path>
                    <path d="M41.6502463,38 C39.8157635,38.5241379 38.3743842,37.8315271 37.7566502,35.9596059 C37.1389163,34.0876847 37.9625616,32.6275862 39.8906404,32.0660099 C41.444335,31.6167488 42.8295567,32.1596059 43.2788177,33.3014778 L41.7064039,33.7133005 C41.4068966,33.2453202 40.8453202,33.0581281 40.2275862,33.2453202 C39.329064,33.5073892 38.9921182,34.3123153 39.329064,35.435468 C39.6660099,36.5586207 40.4522167,37.0640394 41.3320197,36.8206897 C42.2118227,36.5773399 42.3990148,36.0906404 42.2866995,35.5103448 L42.2866995,35.4167488 L41.1635468,35.7349754 L40.8827586,34.7241379 L43.5408867,34.0128079 L43.7280788,34.7241379 C44.1211823,36.2965517 43.3536946,37.5133005 41.6502463,38 L41.6502463,38 Z" id="Shape" fill="#FFFFFF"></path>
                    <path d="M46.6108374,36.6334975 L45.0758621,36.9891626 L43.6719212,31.1862069 C44.7763547,30.9241379 45.337931,30.7931034 46.4423645,30.5684729 C48.0522167,30.2315271 49.0630542,30.8118227 49.2689655,32.0285714 C49.4137617,32.7448974 49.1103334,33.4775658 48.5014778,33.8817734 C49.1753695,34.7054187 49.4935961,35.0985222 50.1487685,35.9408867 L48.426601,36.2591133 L46.9665025,34.4246305 L46.1615764,34.5931034 L46.6108374,36.6334975 Z M45.9369458,33.582266 L46.8729064,33.3763547 C47.453202,33.2453202 47.7339901,32.870936 47.6403941,32.3655172 C47.546798,31.8600985 47.0975369,31.5980296 46.5172414,31.729064 L45.5625616,31.9349754 L45.9369458,33.582266 Z" id="Shape" fill="#FFFFFF"></path>
                    <path d="M54.9221675,35.2295567 C53.2561576,35.4167488 52.4137931,35.529064 50.7665025,35.8098522 L49.7743842,29.9133005 C51.5527094,29.6137931 52.4512315,29.4827586 54.2482759,29.2768473 L54.3793103,30.4935961 L51.608867,30.8866995 L51.7773399,32.0660099 L54.3418719,31.729064 L54.4729064,32.8334975 L51.9270936,33.1704433 L52.0955665,34.3684729 L54.7536946,34.0128079 L54.9221675,35.2295567 Z" id="Shape" fill="#FFFFFF"></path>
                    <path d="M59.3399015,33.5448276 L57.3182266,33.6945813 L57.0374384,35.0423645 L55.4650246,35.1921182 C55.9517241,33.1330049 56.4758621,31.0926108 57.0187192,29.0522167 L59.0591133,28.9024631 C59.8827586,30.8492611 60.6876847,32.7960591 61.4551724,34.7802956 L59.8078818,34.8551724 L59.3399015,33.5448276 Z M57.5241379,32.5714286 L58.9655172,32.4778325 C58.6285714,31.5793103 58.4600985,31.1300493 58.1044335,30.2315271 L58.0669951,30.2315271 C57.8423645,31.1674877 57.7487685,31.635468 57.5428571,32.5714286 L57.5241379,32.5714286 Z" id="Shape" fill="#FFFFFF"></path>
                    <path d="M62.653202,34.7241379 L62.5783251,29.9694581 L60.7812808,30.0256158 L60.7251232,28.808867 C62.4847291,28.7339901 64.2630542,28.7152709 66.0226601,28.7714286 L66.0226601,29.9881773 L64.2068966,29.9881773 L64.2068966,34.7428571 L62.653202,34.7241379 Z" id="Shape" fill="#FFFFFF"></path>
                    <path d="M72.0502463,33.7881773 L70.0285714,33.6197044 L69.5418719,34.8926108 L67.9694581,34.7990148 C68.7743842,32.8334975 69.5980296,30.9054187 70.4591133,28.9773399 L72.4995074,29.1458128 C73.0236453,31.2049261 73.5103448,33.2453202 73.9596059,35.3231527 L72.3123153,35.1359606 L72.0502463,33.7881773 Z M70.4216749,32.5527094 L71.844335,32.6837438 C71.6571429,31.7477833 71.5448276,31.2610837 71.3389163,30.3251232 L71.320197,30.3251232 C70.9458128,31.2049261 70.7773399,31.6541872 70.4216749,32.5527094 L70.4216749,32.5527094 Z" id="Shape" fill="#FFFFFF"></path>
                    <path d="M76.973399,35.8660099 C75.120197,35.5665025 74.1280788,34.3123153 74.3714286,32.3655172 C74.6147783,30.4187192 75.9625616,29.4453202 77.9280788,29.7635468 C79.5004926,30.0256158 80.51133,31.0926108 80.4364532,32.3280788 L78.8453202,32.0285714 C78.7891626,31.4857143 78.3586207,31.0738916 77.7221675,30.9802956 C76.8049261,30.8305419 76.1497537,31.4295567 75.9812808,32.5714286 C75.8128079,33.7133005 76.2807882,34.5369458 77.1793103,34.6866995 C78.0778325,34.8364532 78.4522167,34.4995074 78.6019704,33.9004926 L78.6019704,33.8068966 L77.4600985,33.6197044 L77.6285714,32.5901478 L80.3054187,33.0768473 L80.155665,33.7881773 C79.9123153,35.3793103 78.6955665,36.146798 76.973399,35.8660099 L76.973399,35.8660099 Z" id="Shape" fill="#FFFFFF"></path>
                    <path d="M84.1054187,35.9034483 L82.1211823,35.435468 L81.4472906,36.6334975 L79.8935961,36.3152709 C80.9793103,34.4995074 82.0837438,32.7024631 83.2256158,30.9241379 L85.2285714,31.4108374 C85.4344828,33.5261084 85.6216749,35.6226601 85.7714286,37.737931 L84.1615764,37.3073892 C84.1428571,36.7083744 84.1428571,36.4463054 84.1054187,35.9034483 L84.1054187,35.9034483 Z M82.6640394,34.4246305 L84.0679803,34.7615764 C84.0118227,33.8068966 83.9931034,33.320197 83.9182266,32.3655172 L83.8807882,32.3655172 L82.6640394,34.4246305 Z" id="Shape" fill="#FFFFFF"></path>
                    <polygon id="Shape" fill="#FFFFFF" points="86.3330049 37.8502463 87.9802956 32.1034483 89.5901478 32.5901478 87.8305419 38.2995074"></polygon>
                    <path d="M88.729064,38.5802956 L90.5635468,32.8896552 L91.8364532,33.320197 C92.4541872,35.0049261 92.7349754,35.8285714 93.2778325,37.5133005 L93.3152709,37.5133005 L94.5320197,34.2561576 L96.0295567,34.8364532 L93.8206897,40.3960591 L92.6600985,39.946798 C92.173399,38.262069 91.8926108,37.4197044 91.3123153,35.7349754 L91.2748768,35.7349754 L90.1330049,39.0482759 L88.729064,38.5802956 Z" id="Shape" fill="#FFFFFF"></path>
                </g>
            </g>
        </g>
    </g>
</svg>